<?xml version="1.0" encoding="UTF-8"?>
<svg id="Layer_2" data-name="Layer 2" xmlns="http://www.w3.org/2000/svg" viewBox="0 0 175.67 56.09">
  <defs>
    <style>
      .cls-1 {
        fill: #fff;
      }
    </style>
  </defs>
  <g id="Layer_1-2" data-name="Layer 1">
    <g>
      <path class="cls-1" d="m175.67,56.09H0V0h175.67v56.09ZM2.61,53.48h170.45V2.61H2.61v50.87Z"/>
      <g>
        <path class="cls-1" d="m43.78,41.29l-2.4-5.9h-11.12s-2.4,5.9-2.4,5.9h-5.9s11.27-26.49,11.27-26.49h5.34s11.27,26.49,11.27,26.49h-6.05Zm-7.97-19.54l-3.49,8.53h6.99s-3.49-8.53-3.49-8.53Z"/>
        <path class="cls-1" d="m53.08,41.29V14.99s5.79,0,5.79,0v21.08s13.11,0,13.11,0v5.22s-18.9,0-18.9,0Z"/>
        <path class="cls-1" d="m95.85,28.18c-.55,1.15-1.31,2.12-2.27,2.89-.96.78-2.09,1.36-3.38,1.75-1.29.39-2.67.58-4.15.58h-4.4v7.89s-5.79,0-5.79,0V14.99s10.75,0,10.75,0c1.58,0,2.99.22,4.23.66,1.24.44,2.29,1.06,3.16,1.86.86.8,1.53,1.76,1.99,2.87.46,1.12.7,2.35.7,3.7v.07c0,1.53-.28,2.87-.83,4.02Zm-5.04-3.98c0-1.3-.42-2.29-1.26-2.97-.84-.68-1.99-1.01-3.44-1.01h-4.47v8.04h4.58c1.45,0,2.58-.38,3.38-1.15.8-.76,1.2-1.71,1.2-2.84v-.07Z"/>
        <path class="cls-1" d="m117.33,41.29v-10.56s-10.67,0-10.67,0v10.56s-5.79,0-5.79,0V14.99s5.79,0,5.79,0v10.41s10.67,0,10.67,0v-10.41s5.79,0,5.79,0v26.31s-5.79,0-5.79,0Z"/>
        <path class="cls-1" d="m147.67,41.29l-2.4-5.9h-11.12s-2.4,5.9-2.4,5.9h-5.9s11.27-26.49,11.27-26.49h5.34s11.27,26.49,11.27,26.49h-6.05Zm-7.97-19.54l-3.49,8.53h6.99s-3.49-8.53-3.49-8.53Z"/>
      </g>
    </g>
  </g>
</svg>